<svg width="188" height="111"  xmlns="http://www.w3.org/2000/svg" viewBox="0 0 100 100">
  <title>javdb</title>
  <rect id="svg_1" fill="#2F80ED" height="93" width="160" y="9" x="13"/>
  <path id="svg_2" fill="white" d="m42.1675,24.0039l16.629,0c4.326,0 8.035,0.4011 11.129,1.2031c3.094,0.8021 5.901,2.306 8.422,4.5118c6.56,5.6145 9.84,14.151 9.84,25.6093c0,3.7813 -0.33,7.2331 -0.989,10.3555c-0.658,3.1224 -1.675,5.944 -3.05,8.4648c-1.375,2.4922 -3.137,4.7266 -5.285,6.7032c-1.691,1.5182 -3.538,2.7356 -5.543,3.6523c-2.006,0.9167 -4.168,1.5612 -6.489,1.9336c-2.291,0.3724 -4.884,0.5586 -7.777,0.5586l-16.629,0c-2.32,0 -4.068,-0.3438 -5.242,-1.0312c-1.175,-0.7162 -1.948,-1.7045 -2.32,-2.9649c-0.344,-1.2891 -0.516,-2.9505 -0.516,-4.9844l0,-46.1914c0,-2.75 0.616,-4.7409 1.848,-5.9726c1.231,-1.2318 3.222,-1.8477 5.972,-1.8477zm4.942,10.0977l0,42.7539l9.668,0c2.119,0 3.781,-0.0573 4.984,-0.1719c1.203,-0.1146 2.449,-0.401 3.738,-0.8594c1.289,-0.4583 2.407,-1.1028 3.352,-1.9336c4.268,-3.6093 6.402,-9.8255 6.402,-18.6484c0,-6.2162 -0.945,-10.8711 -2.836,-13.9649c-1.862,-3.0937 -4.168,-5.0559 -6.918,-5.8867c-2.75,-0.8593 -6.073,-1.289 -9.968,-1.289l-8.422,0zm79.191,52.8945l-19.25,0c-2.779,0 -4.769,-0.6159 -5.973,-1.8477c-1.174,-1.2604 -1.761,-3.2513 -1.761,-5.9726l0,-47.3516c0,-2.7786 0.601,-4.7695 1.804,-5.9726c1.232,-1.2318 3.209,-1.8477 5.93,-1.8477l20.41,0c3.008,0 5.615,0.1862 7.821,0.5586c2.205,0.3724 4.182,1.0885 5.929,2.1484c1.49,0.8881 2.808,2.0196 3.953,3.3946c1.146,1.3463 2.02,2.8502 2.621,4.5117c0.602,1.6328 0.903,3.3659 0.903,5.1992c0,6.3021 -3.151,10.9141 -9.453,13.8359c8.278,2.6355 12.418,7.7631 12.418,15.3829c0,3.5234 -0.903,6.7031 -2.707,9.539c-1.805,2.8073 -4.24,4.8841 -7.305,6.2305c-1.919,0.8021 -4.125,1.375 -6.617,1.7187c-2.492,0.3151 -5.4,0.4727 -8.723,0.4727zm-0.945,-27.9727l-13.278,0l0,18.3907l13.707,0c8.623,0 12.934,-3.1081 12.934,-9.3242c0,-3.1797 -1.117,-5.4857 -3.352,-6.918c-2.234,-1.4323 -5.571,-2.1485 -10.011,-2.1485zm-13.278,-25.4375l0,16.2852l11.688,0c3.18,0 5.629,-0.3008 7.348,-0.9023c1.747,-0.6016 3.079,-1.7474 3.996,-3.4375c0.716,-1.2032 1.074,-2.5495 1.074,-4.0391c0,-3.1797 -1.132,-5.2852 -3.395,-6.3164c-2.263,-1.0599 -5.714,-1.5899 -10.355,-1.5899l-10.356,0z"/>
</svg>